<svg viewBox="0 0 100 100" xmlns="http://www.w3.org/2000/svg">
  <circle cx="50" cy="50" r="48" fill="#0a0a0c"/>
  <g fill="#f5f5f2">
    <path d="M50 50 L50 6 A44 44 0 0 1 88 28 Z"/>
    <path d="M50 50 L88 28 A44 44 0 0 1 88 72 Z" opacity="0.72"/>
    <path d="M50 50 L88 72 A44 44 0 0 1 50 94 Z"/>
    <path d="M50 50 L50 94 A44 44 0 0 1 12 72 Z" opacity="0.72"/>
    <path d="M50 50 L12 72 A44 44 0 0 1 12 28 Z"/>
    <path d="M50 50 L12 28 A44 44 0 0 1 50 6 Z" opacity="0.72"/>
  </g>
  <polygon points="50,38 61,57 39,57" fill="url(#logoGoldGrad)"/>
  <defs>
    <linearGradient id="logoGoldGrad" x1="0" y1="0" x2="1" y2="1">
      <stop offset="0%" stop-color="#fdb913"/>
      <stop offset="100%" stop-color="#c9880b"/>
    </linearGradient>
  </defs>
</svg>
